<?xml version="1.0" encoding="UTF-8"?>
<!-- GUI repository logo: an application window. -->
<svg width="256" height="256" version="1.1" xmlns="http://www.w3.org/2000/svg">
  <defs>
    <linearGradient id="bg" x1="0" x2="0" y1="0" y2="1">
      <stop offset="0%" style="stop-color:#001283;stop-opacity:1"/>
      <stop offset="100%" style="stop-color:#1C71D8;stop-opacity:1"/>
    </linearGradient>
  </defs>
  <rect width="256" height="256" rx="56" ry="56" fill="url(#bg)"/>
  <g fill="#ffffff" transform="matrix(10,0,0,10,48,48)">
    <path d="m 3.019531 15.996094 c -1.644531 0 -2.9999998 -1.355469 -2.9999998 -3 v -10 c 0 -1.644532 1.3554688 -3.00000025 2.9999998 -3.00000025 h 10 c 1.644531 0 3 1.35546825 3 3.00000025 v 10 c 0 1.644531 -1.355469 3 -3 3 z m 0 -2 h 10 c 0.570313 0 1 -0.429688 1 -1 v -9 h -12 v 9 c 0 0.570312 0.429688 1 1 1 z m 0 0"/>
    <path d="m 4.019531 6.996094 h 3 v 1 h -3 z m 0 -2 h 3 v 1 h -3 z m 0 0"/>
  </g>
</svg>
